<svg
    width="100%"
    height="100%"
    viewBox="0 0 404 582"
    version="1.1"
    xmlns="http://www.w3.org/2000/svg"
    xmlnsXlink="http://www.w3.org/1999/xlink"
  >
    <title>Confetti Background 2</title>
    <defs>
      <polygon
        id="path-1"
        points="0.378256119 0.000100570835 16.9441429 0.000100570835 16.9441429 20.2007586 0.378256119 20.2007586"
      />
      <polygon
        id="path-3"
        points="0.311505039 8.54852102e-05 13.954 8.54852102e-05 13.954 17.1706448 0.311505039 17.1706448"
      />
      <polygon
        id="path-5"
        points="8.64079586e-05 0.305042371 21.7586286 0.305042371 21.7586286 27.0598404 8.64079586e-05 27.0598404"
      />
      <polygon
        id="path-7"
        points="0 0.0575803951 19.5965366 0.0575803951 19.5965366 17.1345924 0 17.1345924"
      />
      <polygon
        id="path-9"
        points="0.278482093 0.0751508834 11.7122571 0.0751508834 11.7122571 9.66422872 0.278482093 9.66422872"
      />
      <polygon id="path-11" points="0 0 18 0 18 32.987234 0 32.987234" />
      <polygon
        id="path-13"
        points="0.379318182 0.272183106 19.9913636 0.272183106 19.9913636 22.6785873 0.379318182 22.6785873"
      />
      <polygon
        id="path-15"
        points="0 0.317928687 17.8727077 0.317928687 17.8727077 13.0805936 0 13.0805936"
      />
      <polygon
        id="path-17"
        points="0.000195121951 0.0575803951 19.5962927 0.0575803951 19.5962927 17.1345924 0.000195121951 17.1345924"
      />
      <polygon
        id="path-19"
        points="0 0.410701637 24.6462037 0.410701637 24.6462037 17.5242883 0 17.5242883"
      />
      <polygon
        id="path-21"
        points="-4.62962963e-05 0.434860556 24.6462963 0.434860556 24.6462963 18.5552621 -4.62962963e-05 18.5552621"
      />
      <polygon
        id="path-23"
        points="0.139010243 0.365267372 26.9881767 0.365267372 26.9881767 30.4344678 0.139010243 30.4344678"
      />
      <polygon
        id="path-25"
        points="0 0.0279495385 24.8232051 0.0279495385 24.8232051 17.750702 0 17.750702"
      />
      <filter
        x="0.0%"
        y="0.0%"
        width="100.0%"
        height="100.0%"
        filterUnits="objectBoundingBox"
        id="filter-27"
      >
        <feGaussianBlur stdDeviation="0" in="SourceGraphic" />
      </filter>
      <polygon
        id="path-28"
        points="0.319891667 0.229479891 16.8593833 0.229479891 16.8593833 19.1205098 0.319891667 19.1205098"
      />
      <polygon
        id="path-30"
        points="0 0.272172201 13.8347997 0.272172201 13.8347997 11.1980267 0 11.1980267"
      />
      <polygon
        id="path-32"
        points="0.000116091913 0.724767594 38.4484389 0.724767594 38.4484389 30.9252147 0.000116091913 30.9252147"
      />
    </defs>
    <g id="Symbols" stroke="none" strokeWidth="1" fill="none" fillRule="evenodd">
      <g id="MainDashboard/Prizes_FR" transform="translate(13.000000, 0.000000)">
        <g id="confetti_2" transform="translate(-13.000000, 0.000000)">
          <g id="Confetti">
            <g id="confetti" transform="translate(43.000000, 32.771277)">
              <g id="Group-3">
                <mask id="mask-2" fill="white">
                  <use xlinkHref="#path-1" />
                </mask>
                <g id="Clip-2" />
              </g>
            </g>
            <g id="confetti" transform="translate(355.000000, 24.141489)">
              <g id="Group-3" transform="translate(5.000000, 0.000000)">
                <mask id="mask-4" fill="white">
                  <use xlinkHref="#path-3" />
                </mask>
                <g id="Clip-2" />
                <path
                  d="M1.46776,17.1706448 C3.55416,14.5325712 5.34736,13.3798032 7.95416,12.822867 C11.95416,11.9680149 13.95416,8.12118045 13.95416,8.12118045 L8.35416,8.54852102e-05 C6.86056,2.39324394 4.69136,3.57977866 1.15416,5.1291981 C-0.44584,10.6857368 0.56336,14.7920188 1.46776,17.1706448"
                  id="Fill-1"
                  fill="#E6A501"
                  mask="url(#mask-4)"
                />
              </g>
              <path
                d="M6.39075412,5.15425532 C6.39075412,5.15425532 -3.26472118,10.037234 1.160705,20.6170213 L8,18.9893617 C8,18.9893617 3.97688529,14.106383 6.39075412,5.15425532"
                id="Fill-4"
                fill="#FACB02"
              />
            </g>
            <g id="confetti" transform="translate(13.000000, 65.856383)">
              <g id="Group-3">
                <mask id="mask-6" fill="white">
                  <use xlinkHref="#path-5" />
                </mask>
                <g id="Clip-2" />
                <path
                  d="M21.7586286,17.3632906 C21.7586286,17.3632906 8.00683265,14.189951 6.69446531,0.305042371 L0.0994040816,6.00090946 C0.0994040816,6.00090946 -2.08847347,18.9423928 14.0734449,27.0598863 C14.0734449,27.0598863 21.1745061,17.6178365 21.7586286,17.3632906"
                  id="Fill-1"
                  fill="#2E87C9"
                  mask="url(#mask-6)"
                />
              </g>
              <path
                d="M0.0933106461,5.79926519 L0.479257893,5.452397 C1.99675158,4.58252365 6,5.89296465 6,5.89296465 C3.37767931,8.09760483 2.48024593,16.1404421 2.4416512,16.493617 C-0.717602691,10.7991224 0.0933106461,5.79926519 0.0933106461,5.79926519"
                id="Fill-4"
                fill="#3365A6"
              />
            </g>
            <g id="confetti" transform="translate(0.597776, 6.067021)">
              <g id="Group-3">
                <mask id="mask-8" fill="white">
                  <use xlinkHref="#path-7" />
                </mask>
                <g id="Clip-2" />
                <path
                  d="M19.5965366,15.6872529 C16.5853171,13.0756065 15.2701951,10.8309725 14.6340976,7.56791651 C13.6584878,2.56092563 9.2682439,0.0574301854 9.2682439,0.0574301854 L-4.87804878e-05,7.06721742 C2.73165854,8.93632712 4.08531707,11.652119 5.85360976,16.079801 C12.1950732,18.0825974 16.8819024,16.8193336 19.5965366,15.6872529"
                  id="Fill-1"
                  fill="#C5679B"
                  mask="url(#mask-8)"
                />
              </g>
              <path
                d="M6,16.2981693 C6,16.2981693 12,27.4956959 25,22.3634962 L23,14.4319149 C23,14.4319149 17,19.097551 6,16.2981693"
                id="Fill-4"
                fill="#A94B7D"
              />
            </g>
            <g id="confetti" transform="translate(22.000000, 109.874468)">
              <path
                d="M5,19.5861702 C5,19.5861702 12.2811053,4.62936467 32,11.4386623 L24.1999093,0.225616052 C24.1999093,0.225616052 8.64565575,-3.52804051 5,19.5861702"
                id="Fill-1"
                fill="#C5679B"
              />
              <path
                d="M17,10.3085106 C8.05009305,12.4466856 4.4586168,19.8201594 4.4586168,19.8201594 C4.47002654,19.7497341 4.48247353,19.6824859 4.49388328,19.6125901 C2.49510357,23.8312232 0,24.5285923 0,24.5285923 L10.1401507,29.8946809 C12.5942829,27.6728427 15.4467189,22.6286983 15.2755728,17.6364462 C15.1282834,13.3420928 16.588212,10.9068608 17,10.3085106"
                id="Fill-3"
                fill="#A94B7D"
              />
            </g>
            <g id="confetti" transform="translate(331.000000, 92.560638)">
              <g id="Group-3" transform="translate(7.000000, 17.524468)">
                <mask id="mask-10" fill="white">
                  <use xlinkHref="#path-9" />
                </mask>
                <g id="Clip-2" />
                <path
                  d="M0.390257143,0.0751508834 C2.59182857,1.30618954 6.46997143,0.457118019 6.46997143,0.457118019 C8.18425714,3.6458533 11.7122571,8.36659893 11.7122571,8.36659893 C8.74311429,10.2074044 2.94625714,9.55023684 2.94625714,9.55023684 C2.94625714,9.55023684 -0.364028571,5.2298664 0.390257143,0.0751508834"
                  id="Fill-1"
                  fill="#3365A6"
                  mask="url(#mask-10)"
                />
              </g>
              <path
                d="M9.83394712,26.8021277 C9.83394712,26.8021277 1.87173611,16.2074382 14,8.5366665 C14,8.5366665 9.37384419,1.56258132 8.55002515,0 C8.55002515,0 -0.456788397,4.02625272 0.0181432782,12.6901638 C0.570102034,22.7618871 7.5828616,26.1415388 9.83394712,26.8021277"
                id="Fill-4"
                fill="#2E87C9"
              />
            </g>
            <g id="confetti" transform="translate(360.000000, 190.491489)">
              <mask id="mask-12" fill="white">
                <use xlinkHref="#path-11" />
              </mask>
              <g id="Clip-2" />
              <path
                d="M5.61622465,32.987234 L0.112324493,23.8241135 C0.112324493,23.8241135 -1.26365055,18.3262411 5.61622465,13.2865248 C12.4960998,8.24680851 12.4960998,5.03971631 12.4960998,0 L18,9.16312057 C18,9.16312057 18,15.577305 14.3307332,18.3262411 C10.6614665,21.0751773 5.61622465,23.3659574 5.61622465,32.987234"
                id="Fill-1"
                fill="#56A285"
                mask="url(#mask-12)"
              />
            </g>
            <g id="confetti" transform="translate(10.000000, 186.262766)">
              <g id="Group-3" transform="translate(7.000000, 3.092553)">
                <mask id="mask-14" fill="white">
                  <use xlinkHref="#path-13" />
                </mask>
                <g id="Clip-2" />
                <path
                  d="M0.379318182,0.276997928 C0.379318182,0.276997928 14.3588636,4.38865048 11.5575,22.6785873 L19.9870455,14.1559231 C19.9870455,14.1559231 20.8061364,-0.026896966 0.379318182,0.276997928"
                  id="Fill-1"
                  fill="#FACB02"
                  mask="url(#mask-14)"
                />
              </g>
              <g id="Group-6">
                <mask id="mask-16" fill="white">
                  <use xlinkHref="#path-15" />
                </mask>
                <g id="Clip-5" />
                <path
                  d="M17.8727077,13.0805936 C14.6539385,5.55150622 7.76963077,3.51685504 7.76963077,3.51685504 C7.83193846,3.51593083 7.89193846,3.51685504 7.95378462,3.51639294 C4.02378462,2.40179411 3.03886154,0.317697634 3.03886154,0.317697634 L-0.000369230769,10.0288479 C2.28609231,11.8458473 7.05701538,13.5842887 11.3160923,12.6776374 C14.9793231,11.8976031 17.2953231,12.8097997 17.8727077,13.0805936"
                  id="Fill-4"
                  fill="#E6A501"
                  mask="url(#mask-16)"
                />
              </g>
            </g>
            <g id="confetti" transform="translate(100.597776, 10.000000)">
              <g id="Group-3">
                <mask id="mask-18" fill="white">
                  <use xlinkHref="#path-17" />
                </mask>
                <g id="Clip-2" />
                <path
                  d="M19.5962927,15.6872529 C16.585561,13.0756065 15.2699512,10.8309725 14.6343415,7.56791651 C13.6587317,2.56092563 9.2684878,0.0574301854 9.2684878,0.0574301854 L0.000195121951,7.06721742 C2.73141463,8.93682781 4.08556098,11.652119 5.85385366,16.079801 C12.1953171,18.0825974 16.8816585,16.8193336 19.5962927,15.6872529"
                  id="Fill-1"
                  fill="#2E87C9"
                  mask="url(#mask-18)"
                />
              </g>
              <path
                d="M6,15.4746799 C6,15.4746799 11.6842105,27.9163761 24,22.213932 L22.1052632,13.4010638 C22.1052632,13.4010638 16.4210526,18.5851039 6,15.4746799"
                id="Fill-4"
                fill="#3365A6"
              />
            </g>
            <g id="confetti" transform="translate(34.597776, 0.000000)">
              <path
                d="M15,6.71870138 C17.2041163,8.21753553 18.5247813,12.4374932 18.5247813,12.4374932 C22.1343884,12.4374932 28,13.4010638 28,13.4010638 C28,9.54678124 24.3903929,4.24714267 24.3903929,4.24714267 C24.3903929,4.24714267 18.9795918,3.28646274 15,6.71870138"
                id="Fill-1"
                fill="#E6A501"
              />
              <g id="Group-5">
                <mask id="mask-20" fill="white">
                  <use xlinkHref="#path-19" />
                </mask>
                <g id="Clip-4" />
                <path
                  d="M24.6462037,4.49327362 C24.6462037,4.49327362 10.7573148,2.24654694 10.7573148,17.5242883 C10.7573148,17.5242883 1.96101852,16.6255977 0.109166667,16.6255977 C0.109166667,16.6255977 -1.37462963,6.11226486 6.59064815,2.24654694 C15.8499074,-2.24690642 22.7943519,2.69589227 24.6462037,4.49327362"
                  id="Fill-3"
                  fill="#FACB02"
                  mask="url(#mask-20)"
                />
              </g>
            </g>
            <g id="confetti" transform="translate(227.000000, 14.000000)">
              <g id="Group-6-Copy-13" transform="translate(0.000000, 0.123404)">
                <path
                  d="M13,11.8369975 C10.7958837,10.3381863 9.47521866,6.11781125 9.47521866,6.11781125 C5.86516035,6.11781125 0,5.15425532 0,5.15425532 C0,9.00847906 3.60960711,14.3080367 3.60960711,14.3080367 C3.60960711,14.3080367 9.02040816,15.2691838 13,11.8369975"
                  id="Fill-1"
                  fill="#56A285"
                />
                <g id="Group-5" transform="translate(4.000000, 0.000000)">
                  <mask id="mask-22" fill="white">
                    <use xlinkHref="#path-21" />
                  </mask>
                  <g id="Clip-4" />
                  <path
                    d="M-4.62962963e-05,14.2321677 C-4.62962963e-05,14.2321677 13.8888426,16.6110547 13.8888426,0.434622668 C13.8888426,0.434622668 22.6851389,1.3861775 24.5369907,1.3861775 C24.5369907,1.3861775 26.020787,12.5184174 18.0555093,16.6110547 C8.79625,21.3688289 1.85180556,16.1352773 -4.62962963e-05,14.2321677"
                    id="Fill-3"
                    fill="#89C79D"
                    mask="url(#mask-22)"
                  />
                </g>
              </g>
              <path
                d="M155,73.0279002 C155.768992,68.7411019 156.120151,64.2049289 155.9868,59.4989362 C162.857355,60.1261979 169.953125,61.827454 177,64.6791999 C176.613281,70.0675309 175.734644,75.2386152 174.430765,80.1159574 C168.031385,76.6308302 161.460129,74.2870133 155,73.0279002"
                id="Fill-3"
                fill="#81C596"
              />
              <g
                id="Group-7-Copy"
                transform="translate(159.399411, 326.471734) rotate(18.000000) translate(-159.399411, -326.471734) translate(76.899411, 94.471734)"
              >
                <g id="Group-3" transform="translate(137.040128, 432.052605)">
                  <mask id="mask-24" fill="white">
                    <use xlinkHref="#path-23" />
                  </mask>
                  <g id="Clip-2" />
                  <path
                    d="M0.139010243,0.371728821 C0.139010243,0.371728821 19.2772049,5.88953095 15.4420986,30.4344678 L26.982265,18.9971262 C26.982265,18.9971262 28.103612,-0.0360954954 0.139010243,0.371728821"
                    id="Fill-1"
                    fill="#FACB02"
                    mask="url(#mask-24)"
                  />
                </g>
                <g id="Group-6" transform="translate(127.211003, 427.876461)">
                  <mask id="mask-26" fill="white">
                    <use xlinkHref="#path-25" />
                  </mask>
                  <g id="Clip-5" />
                  <path
                    d="M24.8232051,17.750702 C20.3526923,7.29550689 10.7911538,4.47010801 10.7911538,4.47010801 C10.8776923,4.46882461 10.9610256,4.47010801 11.0469231,4.46946631 C5.58858974,2.92168932 4.22064103,0.0276286892 4.22064103,0.0276286892 L-0.000512820513,13.5129245 C3.17512821,16.0360833 9.80141026,18.4501534 15.7167949,17.1911408 C20.8046154,16.1079536 24.0212821,17.3746666 24.8232051,17.750702"
                    id="Fill-4"
                    fill="#E6A501"
                    filter="url(#filter-27)"
                    mask="url(#mask-26)"
                  />
                </g>
                <g id="Group-7" transform="translate(0.697003, 0.647235)">
                  <g id="Group-3" transform="translate(5.133333, 3.059300)">
                    <mask id="mask-29" fill="white">
                      <use xlinkHref="#path-28" />
                    </mask>
                    <g id="Clip-2" />
                    <path
                      d="M0.319891667,0.233539309 C0.319891667,0.233539309 12.1093083,3.70010854 9.746825,19.1205098 L16.8557417,11.9349791 C16.8557417,11.9349791 17.5465083,-0.0226770607 0.319891667,0.233539309"
                      id="Fill-1"
                      fill="#FACB02"
                      mask="url(#mask-29)"
                    />
                  </g>
                  <g id="Group-6">
                    <mask id="mask-31" fill="white">
                      <use xlinkHref="#path-30" />
                    </mask>
                    <g id="Clip-5" />
                    <path
                      d="M13.8347997,11.1980267 C11.3432338,4.75253014 6.01426974,3.01070717 6.01426974,3.01070717 C6.06250051,3.00991597 6.10894496,3.01070717 6.15681846,3.01031157 C3.11470735,2.05612647 2.35230393,0.271974401 2.35230393,0.271974401 L-0.000285811966,8.5854901 C1.76960479,10.1409859 5.46265265,11.6292298 8.75949368,10.8530643 C11.5951056,10.185293 13.3878612,10.9662057 13.8347997,11.1980267"
                      id="Fill-4"
                      fill="#E6A501"
                      mask="url(#mask-31)"
                    />
                  </g>
                </g>
              </g>
            </g>
          </g>
          <g id="confetti" transform="translate(3.000000, 512.000000)">
            <path
              d="M25,11.5414527 C28.5604956,14.0395096 30.6938776,21.0727723 30.6938776,21.0727723 C36.5255102,21.0727723 46,22.6787234 46,22.6787234 C46,16.2549191 40.1690962,7.42218814 40.1690962,7.42218814 C40.1690962,7.42218814 31.4285714,5.82105491 25,11.5414527"
              id="Fill-1"
              fill="#A94B7D"
            />
            <g id="Group-5">
              <mask id="mask-33" fill="white">
                <use xlinkHref="#path-32" />
              </mask>
              <g id="Clip-4" />
              <path
                d="M38.4484389,7.92930638 C38.4484389,7.92930638 16.7817722,3.9644946 16.7817722,30.9252147 C16.7817722,30.9252147 3.05955,29.33929 0.170661111,29.33929 C0.170661111,29.33929 -2.14406111,10.7863498 10.2817722,3.9644946 C24.7262167,-3.96512897 35.55955,4.75745696 38.4484389,7.92930638"
                id="Fill-3"
                fill="#C5679B"
                mask="url(#mask-33)"
              />
            </g>
          </g>
        </g>
      </g>
    </g>
  </svg>
